HIERARCHY
ROOT Hips
{
	OFFSET 0.00000 0.00000 0.00000
	CHANNELS 6 Xposition Yposition Zposition Zrotation Yrotation Xrotation 
	JOINT LHipJoint
	{
		OFFSET 0 0 0
		CHANNELS 3 Zrotation Yrotation Xrotation
		JOINT LeftHip
		{
			OFFSET 1.41261 -1.82971 0.84908
			CHANNELS 3 Zrotation Yrotation Xrotation
			JOINT LeftKnee
			{
				OFFSET 2.52554 -6.93888 0.00000
				CHANNELS 3 Zrotation Yrotation Xrotation
				JOINT LeftAnkle
				{
					OFFSET 2.56654 -7.05152 0.00000
					CHANNELS 3 Zrotation Yrotation Xrotation
					JOINT LeftToe
					{
						OFFSET 0.21698 -0.59616 1.85369
						CHANNELS 3 Zrotation Yrotation Xrotation
						End Site
						{
							OFFSET 0.00000 -0.00000 0.97832
						}
					}
				}
			}
		}
	}
	JOINT RHipJoint
	{
		OFFSET 0 0 0
		CHANNELS 3 Zrotation Yrotation Xrotation
		JOINT RightHip
		{
			OFFSET -1.12808 -1.82971 0.84907
			CHANNELS 3 Zrotation Yrotation Xrotation
			JOINT RightKnee
			{
				OFFSET -2.53425 -6.96280 0.00000
				CHANNELS 3 Zrotation Yrotation Xrotation
				JOINT RightAnkle
				{
					OFFSET -2.58413 -7.09983 0.00000
					CHANNELS 3 Zrotation Yrotation Xrotation
					JOINT RightToe
					{
						OFFSET -0.26437 -0.72636 1.92241
						CHANNELS 3 Zrotation Yrotation Xrotation
						End Site
						{
							OFFSET -0.00000 -0.00000 1.02667
						}
					}
				}
			}
		}
	}
	JOINT lowerback
	{
		OFFSET 0 0 0
		CHANNELS 3 Zrotation Yrotation Xrotation
		JOINT Chest
		{
			OFFSET -0.02096 2.02288 -0.14752
			CHANNELS 3 Zrotation Yrotation Xrotation
			JOINT Chest2
			{
				OFFSET 0.03477 2.03136 -0.02358
				CHANNELS 3 Zrotation Yrotation Xrotation
				JOINT lowerneck
				{
					OFFSET 0 0 0
					CHANNELS 3 Zrotation Yrotation Xrotation
					JOINT Neck
					{
						OFFSET 0.00174 1.74359 0.19336
						CHANNELS 3 Zrotation Yrotation Xrotation
						JOINT Head
						{
							OFFSET -0.03054 1.76140 -0.17751
							CHANNELS 3 Zrotation Yrotation Xrotation
							End Site
							{
								OFFSET -0.00863 1.77239 -0.08120
							}
						}
					}
				}
				JOINT LeftCollar
				{
					OFFSET 0 0 0
					CHANNELS 3 Zrotation Yrotation Xrotation
					JOINT LeftShoulder
					{
						OFFSET 3.68685 1.32687 -0.67367
CHANNELS 3 Zrotation Xrotation Yrotation
						JOINT LeftElbow
						{
OFFSET 0 -4.764680 -0.000000
CHANNELS 3 Zrotation Xrotation Yrotation
							JOINT LeftWrist
							{
OFFSET 0 -3.527120 -0.000000
CHANNELS 3 Zrotation Xrotation Yrotation
								JOINT lhand
								{
									OFFSET 0 0 0
CHANNELS 3 Zrotation Xrotation Yrotation
									JOINT LFingers
									{
OFFSET 0 -0.859560 -0.000000
CHANNELS 3 Zrotation Xrotation Yrotation
										End Site
										{
OFFSET 0 -0.693000 -0.000000
										}
									}
								}
								JOINT LThumb
								{
OFFSET 0 0.000000 0.000000
CHANNELS 3 Zrotation Xrotation Yrotation
									End Site
									{
OFFSET 0 -0.703580 0.703580
									}
								}
							}
						}
					}
				}
				JOINT RightCollar
				{
					OFFSET 0 0 0
					CHANNELS 3 Zrotation Yrotation Xrotation
					JOINT RightShoulder
					{
						OFFSET -3.31304 1.28268 -0.97357
CHANNELS 3 Zrotation Xrotation Yrotation
						JOINT RightElbow
						{
OFFSET 0 -4.905770 -0.000000
CHANNELS 3 Zrotation Xrotation Yrotation
							JOINT RightWrist
							{
OFFSET 0 -3.426920 0.000000
CHANNELS 3 Zrotation Xrotation Yrotation
								JOINT rhand
								{
									OFFSET 0 0 0
CHANNELS 3 Zrotation Xrotation Yrotation
									JOINT RFingers
									{
OFFSET 0 -0.740960 -0.000000
CHANNELS 3 Zrotation Xrotation Yrotation
										End Site
										{
OFFSET 0 -0.597380 -0.000000
										}
									}
								}
								JOINT RThumb
								{
OFFSET 0 0.000000 0.000000
CHANNELS 3 Zrotation Xrotation Yrotation
									End Site
									{
OFFSET 0 -0.606500 0.606500
									}
								}
							}
						}
					}
				}
			}
		}
	}
}
MOTION
Frames: 4
Frame Time: 0.008333333333333333
0.314800 17.975800 -32.616500 -1.926900 3.706000 4.219400 0.000000 0.000000 0.000000 -18.342200 -0.024400 -1.534900 0.584500 4.895400 13.610400 0.789100 -3.435900 -15.974800 3.376800 -11.281400 -33.234800 0.000000 0.000000 0.000000 15.125200 -0.534400 -2.641800 -0.707800 -5.376900 14.986700 -0.562700 -4.729700 -16.685500 -0.005300 -0.469700 1.290600 -2.505600 2.576700 4.866400 0.308600 3.302300 0.255800 1.483400 1.676500 -2.622100 6.817600 10.972800 -5.059900 -5.089400 14.747600 10.326400 -1.703000 7.254700 4.808600 0.000000 0.000000 0.000000 -5.710300 3.947800 -7.335400 20.159100 -30.833600 5.612700 10.656200 -3.078900 16.565100 0.000000 0.000000 0.000000 -7.125000 0.000000 0.000000 -11.401600 13.378300 -8.630400 0.000000 0.000000 0.000000 3.235000 -3.886300 6.999500 -12.544400 -20.616000 -2.290400 -5.737500 8.291400 35.923900 0.000000 0.000000 0.000000 7.125000 0.000000 -0.000000 33.928500 62.818900 -15.607800
0.315092 17.975186 -32.616675 -1.934262 3.682394 4.203448 0.000000 0.000000 0.000000 -18.335480 -0.001145 -1.520380 0.584383 4.894903 13.608968 0.790824 -3.431401 -15.993176 3.374521 -11.277982 -33.223114 0.000000 0.000000 0.000000 15.130897 -0.524759 -2.626637 -0.707829 -5.377017 14.987021 -0.562408 -4.737325 -16.687428 -0.004774 -0.443728 1.219256 -2.494264 2.576934 4.909610 0.305620 3.301803 0.239556 1.471568 1.676617 -2.662213 6.827329 10.936544 -5.004157 -5.128695 14.701761 10.248804 -1.725233 7.232409 4.776405 0.000000 0.000000 0.000000 -5.717429 4.003718 -7.363651 20.187527 -30.867607 5.627278 10.685649 -3.120503 16.622012 0.000000 0.000000 0.000000 -7.125000 0.000000 0.000000 -11.381558 13.319519 -8.628910 0.000000 0.000000 0.000000 3.248439 -3.838328 7.025443 -12.566604 -20.648867 -2.298230 -5.779132 8.241296 35.907569 0.000000 0.000000 0.000000 7.125000 0.000000 0.000000 33.867323 62.816358 -15.574202
0.315384 17.974573 -32.616851 -1.941625 3.658788 4.187497 0.000000 0.000000 0.000000 -18.328761 0.022111 -1.505860 0.584266 4.894407 13.607537 0.792547 -3.426902 -16.011553 3.372242 -11.274564 -33.211428 0.000000 0.000000 0.000000 15.136594 -0.515118 -2.611474 -0.707858 -5.377134 14.987343 -0.562116 -4.744950 -16.689356 -0.004248 -0.417755 1.147912 -2.482929 2.577167 4.952819 0.302640 3.301307 0.223313 1.459736 1.676734 -2.702325 6.837057 10.900287 -4.948414 -5.167989 14.655922 10.171208 -1.747466 7.210117 4.744209 0.000000 0.000000 0.000000 -5.724557 4.059636 -7.391903 20.215953 -30.901613 5.641857 10.715098 -3.162105 16.678923 0.000000 0.000000 0.000000 -7.125000 0.000000 0.000000 -11.361517 13.260737 -8.627420 0.000000 0.000000 0.000000 3.261878 -3.790357 7.051386 -12.588807 -20.681735 -2.306059 -5.820764 8.191191 35.891237 0.000000 0.000000 0.000000 7.125000 0.000000 0.000000 33.806146 62.813817 -15.540605
0.315676 17.973959 -32.617026 -1.948987 3.635182 4.171545 0.000000 0.000000 0.000000 -18.322041 0.045366 -1.491340 0.584149 4.893910 13.606105 0.794271 -3.422403 -16.029929 3.369964 -11.271145 -33.199742 0.000000 0.000000 0.000000 15.142291 -0.505477 -2.596312 -0.707888 -5.377251 14.987664 -0.561824 -4.752576 -16.691285 -0.003722 -0.391783 1.076568 -2.471593 2.577401 4.996029 0.299660 3.300810 0.207069 1.447903 1.676851 -2.742438 6.846786 10.864031 -4.892671 -5.207284 14.610083 10.093612 -1.769699 7.187826 4.712014 0.000000 0.000000 0.000000 -5.731686 4.115555 -7.420154 20.244380 -30.935620 5.656435 10.744547 -3.203708 16.735835 0.000000 0.000000 0.000000 -7.125000 0.000000 0.000000 -11.341475 13.201956 -8.625930 0.000000 0.000000 0.000000 3.275317 -3.742385 7.077330 -12.611011 -20.714602 -2.313889 -5.862396 8.141087 35.874906 0.000000 0.000000 0.000000 7.125000 0.000000 0.000000 33.744969 62.811275 -15.507007
